<?xml version="1.0" encoding="utf-8"?>
<!-- Generator: Adobe Illustrator 16.2.0, SVG Export Plug-In . SVG Version: 6.00 Build 0)  -->
<!DOCTYPE svg PUBLIC "-//W3C//DTD SVG 1.1//EN" "http://www.w3.org/Graphics/SVG/1.1/DTD/svg11.dtd">
<svg version="1.1" id="Layer_1" xmlns="http://www.w3.org/2000/svg" xmlns:xlink="http://www.w3.org/1999/xlink" x="0px" y="0px"
	 width="583px" height="93px" viewBox="0 0 583 93" enable-background="new 0 0 583 93" xml:space="preserve">
<g>
	<g>
		<path fill="#221E1F" d="M12.794,47.085c5.053,0,6.646-3.278,6.646-7.029c0-3.786-1.594-7.015-6.646-7.015H6.975v14.044H12.794z
			 M13.402,31.517c6.467,0,9.316,3.707,9.316,8.499c0,4.803-2.849,8.595-9.316,8.595H6.975v11.897h4.534v1.523H0.897v-1.523h2.929
			V33.041H0.897v-1.524H13.402z"/>
		<polygon fill="#221E1F" points="49.792,33.041 49.792,60.508 52.762,60.508 52.762,62.032 43.714,62.032 43.714,60.508 
			46.644,60.508 46.644,47.175 31.677,47.175 31.677,60.508 34.656,60.508 34.656,62.032 25.599,62.032 25.599,60.508 
			28.528,60.508 28.528,33.041 25.599,33.041 25.599,31.517 34.656,31.517 34.656,33.041 31.677,33.041 31.677,45.65 46.644,45.65 
			46.644,33.041 43.714,33.041 43.714,31.517 52.762,31.517 52.762,33.041 		"/>
		<path fill="#221E1F" d="M73.627,50.741l-5.521-15.518h-0.08l-5.181,15.518H73.627z M83.801,60.508v1.524H73.029v-1.524h4.095
			l-2.939-8.241H62.377l-2.76,8.241h4.395v1.524h-9.356v-1.524h3.368l9.954-29.211h1.983l10.781,29.211H83.801z"/>
		<path fill="#221E1F" d="M97.124,46.388c5.001,0,6.596-3.363,6.596-6.681c0-3.787-1.595-6.666-6.596-6.666h-5.561v13.347H97.124z
			 M110.535,60.508v1.524h-6.467l-3.627-10.762c-0.816-2.401-2.242-3.527-5.002-3.527h-3.875v12.765h4.524v1.524H85.484v-1.524h2.93
			V33.041h-2.93v-1.524h12.157c6.467,0,9.396,3.318,9.396,7.972c0,3.798-2.322,7.208-7.453,8.034
			c2.152,0.52,3.447,1.616,4.225,3.618l3.317,9.367H110.535L110.535,60.508z"/>
		<polygon fill="#221E1F" points="129.936,61.075 128.551,61.075 117.261,35.92 117.261,60.508 120.709,60.508 120.709,62.032 
			112.299,62.032 112.299,60.508 115.617,60.508 115.617,33.041 112.299,33.041 112.299,31.517 118.676,31.517 130.105,56.671 
			130.195,56.671 140.927,31.517 146.965,31.517 146.965,33.041 144.035,33.041 144.035,60.508 146.965,60.508 146.965,62.032 
			137.907,62.032 137.907,60.508 140.836,60.508 140.836,35.532 		"/>
		<path fill="#221E1F" d="M167.831,50.741l-5.521-15.518h-0.09l-5.171,15.518H167.831z M178.004,60.508v1.524h-10.782v-1.524h4.096
			l-2.93-8.241h-11.818l-2.76,8.241h4.404v1.524h-9.356v-1.524h3.357l9.964-29.211h1.983l10.781,29.211H178.004z"/>
		<path fill="#221E1F" d="M201.969,57.548c-2.88,4.085-7.065,4.921-9.566,4.921c-8.45,0-13.8-6.884-13.8-15.683
			c0-8.823,5.35-15.698,13.8-15.698c2.501,0,6.686,0.827,9.566,4.872l0.309-4.664h1.076v7.932h-1.385
			c-1.983-4.444-5.341-6.616-9.227-6.616c-7.025,0-10.732,6.447-10.732,14.173c0,7.702,3.707,14.16,10.732,14.16
			c3.886,0,7.244-2.183,9.227-6.628h1.385v7.933h-1.076L201.969,57.548z"/>
		<polygon fill="#221E1F" points="229.56,54.758 229.56,62.032 207.618,62.032 207.618,60.508 210.548,60.508 210.548,33.041 
			207.618,33.041 207.618,31.517 229.132,31.517 229.132,38.791 227.836,38.791 226.63,33.041 213.696,33.041 213.696,45.65 
			222.276,45.65 222.665,41.103 223.96,41.103 223.96,51.658 222.665,51.658 222.276,47.175 213.696,47.175 213.696,60.508 
			227.059,60.508 228.274,54.758 		"/>
		<path fill="#221E1F" d="M258.536,51.359c0,7.494-3.368,11.109-11.379,11.109c-7.982,0-11.339-3.615-11.339-11.109V33.041h-2.94
			v-1.524h9.058v1.524h-2.979v18.797c0,6.577,2.76,9.109,8.201,9.109c5.47,0,8.19-2.532,8.19-9.109V33.041h-2.939v-1.524h9.058
			v1.524h-2.93V51.359z"/>
		<polygon fill="#221E1F" points="287.463,31.517 287.463,38.791 286.167,38.791 284.833,33.041 277.03,33.041 277.03,60.508 
			282.112,60.508 282.112,62.032 268.75,62.032 268.75,60.508 273.881,60.508 273.881,33.041 266.339,33.041 265.043,38.791 
			263.748,38.791 263.748,31.517 		"/>
		<polygon fill="#221E1F" points="290.393,33.041 290.393,31.517 299.449,31.517 299.449,33.041 296.471,33.041 296.471,60.508 
			299.449,60.508 299.449,62.032 290.393,62.032 290.393,60.508 293.322,60.508 293.322,33.041 		"/>
		<path fill="#221E1F" d="M326.395,57.548c-2.889,4.085-7.076,4.921-9.575,4.921c-8.448,0-13.793-6.884-13.793-15.683
			c0-8.823,5.343-15.698,13.793-15.698c2.501,0,6.687,0.827,9.575,4.872l0.298-4.664h1.077v7.932h-1.375
			c-1.983-4.444-5.352-6.616-9.228-6.616c-7.024,0-10.741,6.447-10.741,14.173c0,7.702,3.717,14.16,10.741,14.16
			c3.876,0,7.244-2.183,9.228-6.628h1.375v7.933h-1.077L326.395,57.548z"/>
		<path fill="#221E1F" d="M349.074,50.741l-5.522-15.518h-0.089l-5.172,15.518H349.074z M359.246,60.508v1.524h-10.78v-1.524h4.096
			l-2.931-8.241h-11.818l-2.759,8.241h4.403v1.524H330.1v-1.524h3.359l9.965-29.211h1.982l10.78,29.211H359.246z"/>
		<polygon fill="#221E1F" points="381.876,54.758 381.876,62.032 360.921,62.032 360.921,60.508 363.851,60.508 363.851,33.041 
			360.921,33.041 360.921,31.517 369.979,31.517 369.979,33.041 366.999,33.041 366.999,60.508 379.375,60.508 380.58,54.758 		"/>
		<path fill="#221E1F" d="M403.868,55.804c0,4.444-2.373,6.665-6.128,6.665c-2.072,0-3.188-0.916-3.188-2.141
			c0-1.127,0.777-1.695,1.684-1.695c0.855,0,1.674,0.349,1.674,1.396c0,0.259-0.129,0.996-0.855,1.306
			c0.259,0.09,0.478,0.129,0.776,0.129c1.983,0,2.89-1.394,2.89-4.443V33.041h-3.539v-1.524h9.656v1.524h-2.969V55.804z"/>
		<path fill="#221E1F" d="M424.732,60.946c7.064,0,11.21-6.497,11.21-14.16c0-7.687-4.146-14.173-11.21-14.173
			c-7.073,0-11.209,6.487-11.209,14.173C413.523,54.449,417.659,60.946,424.732,60.946z M424.732,31.088
			c8.102,0,14.569,6.576,14.569,15.698c0,9.098-6.468,15.683-14.569,15.683c-8.111,0-14.617-6.585-14.617-15.683
			C410.115,37.664,416.621,31.088,424.732,31.088z"/>
		<path fill="#221E1F" d="M468.098,51.359c0,7.494-3.356,11.109-11.38,11.109c-7.981,0-11.338-3.615-11.338-11.109V33.041h-2.93
			v-1.524h9.048v1.524h-2.97v18.797c0,6.577,2.762,9.109,8.19,9.109c5.48,0,8.193-2.532,8.193-9.109V33.041h-2.931v-1.524h9.059
			v1.524h-2.94v18.318H468.098z"/>
		<path fill="#221E1F" d="M485.864,46.388c5.004,0,6.597-3.363,6.597-6.681c0-3.787-1.595-6.666-6.597-6.666h-5.561v13.347H485.864z
			 M499.266,60.508v1.524H492.8l-3.617-10.762c-0.817-2.401-2.243-3.527-5.002-3.527h-3.878v12.765h4.525v1.524h-10.612v-1.524
			h2.939V33.041h-2.939v-1.524h12.167c6.466,0,9.396,3.318,9.396,7.972c0,3.798-2.331,7.208-7.462,8.034
			c2.162,0.52,3.457,1.616,4.224,3.618l3.329,9.367H499.266L499.266,60.508z"/>
		<polygon fill="#221E1F" points="529.278,31.517 529.278,33.041 525.871,33.041 525.871,62.032 523.331,62.032 505.992,35.881 
			505.992,60.508 509.49,60.508 509.49,62.032 501.04,62.032 501.04,60.508 504.358,60.508 504.358,33.041 501.04,33.041 
			501.04,31.517 506.899,31.517 524.237,57.678 524.237,33.041 520.7,33.041 520.7,31.517 		"/>
		<path fill="#221E1F" d="M548.112,50.741l-5.511-15.518h-0.09l-5.171,15.518H548.112z M558.296,60.508v1.524h-10.782v-1.524h4.096
			l-2.929-8.241h-11.818l-2.761,8.241h4.395v1.524h-9.346v-1.524h3.357l9.964-29.211h1.982l10.772,29.211H558.296z"/>
		<polygon fill="#221E1F" points="580.924,54.758 580.924,62.032 559.969,62.032 559.969,60.508 562.899,60.508 562.899,33.041 
			559.969,33.041 559.969,31.517 569.027,31.517 569.027,33.041 566.048,33.041 566.048,60.508 578.424,60.508 579.63,54.758 		"/>
	</g>
	<g>
		<path fill="#221E1F" d="M5.292,10.561H3.069l0.149-0.488H5.44l1.306-4.215c1.006,0,1.953-0.249,2.75-0.867l-1.584,5.082h3.557
			l-0.148,0.488H7.752l-2.979,9.537c-0.089,0.338-0.219,0.926-0.219,1.384c0,0.469,0.309,0.897,0.946,0.897
			c0.977,0,3.139-1.515,4.574-3.638l0.329,0.249c-1.305,1.665-3.228,3.876-5.54,3.876c-1.465,0-2.501-0.578-2.501-2.182
			c0-0.618,0.219-1.385,0.488-2.242L5.292,10.561z"/>
		<path fill="#221E1F" d="M17.408,1.334h-2.073l0.119-0.498h1.375c1.186,0,2.401-0.18,3.379-0.768l-3.927,13.572h0.06
			c1.346-2.252,3.657-4.245,6.029-4.245c1.953,0,2.859,1.106,2.859,2.491c0,1.326-2.889,8.521-2.889,9.287
			c0,0.499,0.219,0.957,0.697,0.957c1.315,0,2.561-2.093,3.049-2.681l0.31,0.219c-0.618,0.896-2.043,3.198-4.265,3.198
			c-1.435,0-1.982-0.887-1.982-2.272c0-1.913,2.889-8.4,2.889-9.695c0-0.618-0.329-1.017-1.156-1.017
			c-1.425,0-5.171,2.282-6.387,6.466l-1.833,6.338h-2.431L17.408,1.334z"/>
		<path fill="#221E1F" d="M35.802,9.884c-2.74,0-3.956,3.168-4.664,5.381c0.488,0.16,1.286,0.438,2.192,0.438
			c3.288,0,4.294-2.681,4.294-3.946C37.625,10.681,36.928,9.884,35.802,9.884z M38.722,19.36c-0.639,0.897-2.491,3.697-5.809,3.697
			c-1.645,0-4.783-1.266-4.783-5.231c0-4.743,4.384-8.43,8.191-8.43c1.524,0,3.318,0.737,3.318,2.67
			c0,2.372-2.859,4.125-6.307,4.125c-0.787,0-1.584-0.149-2.312-0.458c-0.299,1.166-0.519,2.461-0.519,3.228
			c0,2.033,0.638,3.597,2.859,3.597c2.621,0,4.544-2.74,5.063-3.408L38.722,19.36z"/>
	</g>
	<g>
		<path fill="#989898" d="M9.241,74.965H9.196l-4.145,6.717h4.327L9.241,74.965z M0.061,87.004h0.5c0.302,0,0.695-0.029,1.088-0.665
			l9.151-14.626h0.287l0.469,15.291h1.255l-0.06,0.35H7.607l0.09-0.35h1.816l-0.136-4.992H4.794l-2.571,4.19
			c-0.197,0.273-0.257,0.425-0.257,0.53c0,0.166,0.211,0.273,0.953,0.273h0.65l-0.091,0.348H0L0.061,87.004z"/>
		<path fill="#989898" d="M24.623,79.517h2.42c2.133,0,3.313-3.01,3.313-5.051c0-0.846-0.333-1.694-1.8-1.694h-2.057L24.623,79.517z
			 M18.814,87.004h1.618l3.949-14.232H22.49l0.091-0.334h6.489c2.601,0,3.296,1.848,3.296,2.903c0,2.801-2.617,4.04-4.733,4.387
			v0.045c1.27,0.165,2.299,1.167,2.299,2.466c0,1.271-0.696,3.359-0.696,4.175c0,0.241,0.061,0.562,0.529,0.562
			c0.893,0,1.18-0.667,1.376-0.896l0.303,0.154c-0.273,0.394-0.861,1.238-1.951,1.238c-1.618,0-2.132-1.315-2.132-2.057
			c0-0.604,0.816-3.66,0.816-4.296c0-0.907-0.62-1.271-1.497-1.271h-2.133l-1.997,7.153h1.831l-0.091,0.35H18.74L18.814,87.004z"/>
		<path fill="#989898" d="M35.815,80c-0.438,0.757-1.573,4.433-1.573,5.415c0,1.029,0.635,1.847,1.83,1.847
			c1.301,0,1.951-0.969,2.132-1.271c0.545-0.924,1.68-4.523,1.68-5.766c0-1.026-0.621-1.69-1.815-1.69
			C36.995,78.535,36.284,79.2,35.815,80z M38.189,78.201c1.468,0,3.207,1.27,3.207,3.403c0,3.433-2.753,6.006-5.263,6.006
			c-2.299,0-3.388-1.665-3.388-3.708C32.745,81.256,35.09,78.201,38.189,78.201z"/>
		<path fill="#989898" d="M49.442,81.256c1.043-1.934,1.694-3.057,2.798-3.057c0.574,0,0.998,0.318,0.998,1.075
			c0,0.559-0.393,0.951-0.922,0.951c-0.393,0-0.832-0.271-0.832-0.739c0-0.212,0.122-0.347,0.122-0.543
			c0-0.061-0.016-0.106-0.091-0.106c-0.166,0-0.786,0.649-1.769,2.45l-2.42,4.416c-1.755,3.222-3.69,6.609-6.247,6.609
			c-0.877,0-1.512-0.498-1.512-1.299c0-0.604,0.469-1.076,1.013-1.076c0.484,0,0.878,0.271,0.878,0.954
			c0,0.53-0.348,0.604-0.348,0.849c0,0.121,0.121,0.212,0.348,0.212c1.633,0,3.584-2.905,4.28-4.218l-1.029-7.61
			c-0.061-0.423-0.167-1.027-0.56-1.027c-0.726,0-1.543,1.663-1.785,2.07l-0.302-0.103c0.272-0.473,1.361-2.862,3.085-2.862
			c1.088,0,1.255,1.228,1.391,2.27l0.621,4.915h0.045L49.442,81.256z"/>
		<path fill="#989898" d="M55.916,87.262c1.784,0,2.813-1.711,3.403-3.675c0.53-1.74,0.937-2.741,0.937-3.161
			c0-0.757-0.619-1.891-1.921-1.891c-2.691,0-3.917,5.396-3.917,7.03C54.418,86.686,54.978,87.262,55.916,87.262z M60.453,85.4
			c-0.106,0.334-0.242,0.756-0.242,1.104c0,0.333,0.181,0.59,0.514,0.59c0.726,0,1.649-1.423,1.951-1.815l0.212,0.214
			c-0.288,0.378-1.195,2.117-2.541,2.117c-1.422,0-1.497-1.256-1.513-1.907H58.79c-0.499,0.863-1.68,1.907-2.889,1.907
			c-1.996,0-3.13-1.634-3.13-3.602c0-2.964,3.025-5.808,5.642-5.808c1.361,0,1.905,1.121,2.057,1.754h0.045l0.394-1.283h1.618
			L60.453,85.4z"/>
		<path fill="#989898" d="M68.015,72.65h-1.422l0.076-0.333h0.953c0.817,0,1.649-0.137,2.33-0.53L65.913,85.4
			c-0.122,0.422-0.243,0.756-0.243,1.013s0.136,0.562,0.5,0.562c1.104,0,2.072-1.455,2.33-1.833l0.257,0.167
			c-0.288,0.47-1.513,2.163-3.146,2.163c-0.68,0-1.452-0.379-1.452-1.421c0-0.379,0.151-0.862,0.378-1.618L68.015,72.65z"/>
		<path fill="#989898" d="M79.525,80.106h2.133c3.024,0,3.992-3.01,3.992-4.975c0-1.68-0.635-2.36-2.313-2.36h-1.785L79.525,80.106z
			 M73.884,87.004h1.618l3.932-14.232h-1.875l0.076-0.334h6.202c2.208,0,4.068,0.895,4.068,3.345c0,3.389-3.222,4.658-5.914,4.658
			h-2.556l-1.815,6.563h2.027l-0.06,0.35h-5.792L73.884,87.004z"/>
		<path fill="#989898" d="M91.806,72.65h-1.422l0.076-0.333h0.953c0.817,0,1.649-0.137,2.314-0.53l-2.692,9.332h0.03
			c0.922-1.543,2.525-2.92,4.16-2.92c1.346,0,1.965,0.758,1.965,1.71c0,0.922-1.996,5.869-1.996,6.396
			c0,0.348,0.151,0.667,0.483,0.667c0.909,0,1.771-1.454,2.102-1.846l0.212,0.15c-0.424,0.605-1.407,2.194-2.934,2.194
			c-0.983,0-1.361-0.604-1.361-1.56c0-1.314,1.981-5.793,1.981-6.669c0-0.422-0.226-0.71-0.786-0.71
			c-0.999,0-3.571,1.571-4.402,4.446l-1.27,4.372h-1.664L91.806,72.65z"/>
		<path fill="#989898" d="M102.333,87.262c1.77,0,2.797-1.711,3.388-3.675c0.529-1.74,0.938-2.741,0.938-3.161
			c0-0.757-0.62-1.891-1.92-1.891c-2.677,0-3.917,5.396-3.917,7.03C100.82,86.686,101.38,87.262,102.333,87.262z M106.855,85.4
			c-0.105,0.334-0.227,0.756-0.227,1.104c0,0.333,0.166,0.59,0.499,0.59c0.726,0,1.648-1.423,1.951-1.815l0.211,0.214
			c-0.272,0.378-1.193,2.117-2.54,2.117c-1.421,0-1.482-1.256-1.513-1.907h-0.045c-0.499,0.863-1.663,1.907-2.889,1.907
			c-1.981,0-3.115-1.634-3.115-3.602c0-2.964,3.009-5.808,5.641-5.808c1.361,0,1.905,1.121,2.042,1.754h0.045l0.394-1.283h1.618
			L106.855,85.4z"/>
		<path fill="#989898" d="M112.89,79.004h-1.452l0.091-0.332h0.771c1.073,0,1.936-0.046,2.495-0.473l-0.862,2.632l0.045,0.031
			c0.575-1.029,2.058-2.541,3.373-2.541c0.923,0,1.347,0.514,1.347,1.058c0,0.711-0.56,1.059-1.09,1.059
			c-0.604,0-0.801-0.394-0.801-0.771c0-0.408,0.105-0.515,0.105-0.619c0-0.152-0.075-0.213-0.271-0.213
			c-0.983,0-2.723,2.268-3.01,3.267l-1.543,5.25h-1.634L112.89,79.004z"/>
		<path fill="#989898" d="M120.619,79.004h-1.301l0.091-0.332h0.438c0.907,0,1.784-0.094,2.692-0.473l-0.862,2.92h0.03
			c0.847-1.436,2.435-2.92,3.902-2.92c0.923,0,1.604,0.593,1.604,1.47c0,0.5-0.045,0.907-0.197,1.33h0.045
			c1.089-1.544,2.39-2.8,3.6-2.8c1.346,0,1.981,0.758,1.981,1.71c0,0.922-1.997,5.869-1.997,6.396c0,0.348,0.152,0.667,0.485,0.667
			c0.892,0,1.754-1.454,2.087-1.846l0.211,0.15c-0.424,0.605-1.407,2.194-2.935,2.194c-0.982,0-1.36-0.604-1.36-1.56
			c0-1.314,1.997-5.793,1.997-6.669c0-0.422-0.228-0.71-0.802-0.71c-1.028,0-3.357,2.646-3.766,4.067l-1.392,4.751h-1.694
			l1.754-6.078c0.514-1.694,0.545-1.997,0.545-2.285c0-0.301-0.182-0.452-0.454-0.452c-1.618,0-3.675,2.75-4.083,4.174l-1.346,4.645
			h-1.694L120.619,79.004z"/>
		<path fill="#989898" d="M137.619,87.262c1.784,0,2.813-1.711,3.403-3.675c0.515-1.74,0.938-2.741,0.938-3.161
			c0-0.757-0.62-1.891-1.921-1.891c-2.692,0-3.932,5.396-3.932,7.03C136.106,86.686,136.681,87.262,137.619,87.262z M142.156,85.4
			c-0.106,0.334-0.242,0.756-0.242,1.104c0,0.333,0.166,0.59,0.514,0.59c0.726,0,1.648-1.423,1.952-1.815l0.196,0.214
			c-0.271,0.378-1.195,2.117-2.526,2.117c-1.437,0-1.497-1.256-1.513-1.907h-0.045c-0.499,0.863-1.68,1.907-2.889,1.907
			c-1.997,0-3.131-1.634-3.131-3.602c0-2.964,3.025-5.808,5.642-5.808c1.361,0,1.905,1.121,2.057,1.754h0.045l0.393-1.283h1.618
			L142.156,85.4z"/>
		<path fill="#989898" d="M153.363,84.222c-0.271,0.663-1.83,3.389-4.22,3.389c-1.118,0-3.281-0.878-3.281-3.603
			c0-2.844,2.813-5.809,5.641-5.809c1.422,0,2.299,0.696,2.299,1.528c0,0.698-0.378,1.076-0.968,1.076
			c-0.544,0-0.922-0.335-0.922-0.999c0-0.56,0.242-0.77,0.242-0.922c0-0.196-0.106-0.348-0.742-0.348
			c-2.949,0-3.796,5.262-3.796,6.82c0,1.058,0.469,1.907,1.618,1.907c2.072,0,3.646-2.707,3.842-3.146L153.363,84.222z"/>
		<path fill="#989898" d="M160.169,78.535c-1.875,0-2.722,2.192-3.207,3.705c0.348,0.105,0.893,0.303,1.513,0.303
			c2.269,0,2.965-1.846,2.965-2.708C161.44,79.094,160.956,78.535,160.169,78.535z M162.181,85.067
			c-0.438,0.604-1.709,2.543-3.993,2.543c-1.134,0-3.296-0.878-3.296-3.602c0-3.267,3.024-5.808,5.641-5.808
			c1.043,0,2.284,0.515,2.284,1.846c0,1.635-1.966,2.827-4.341,2.827c-0.545,0-1.088-0.105-1.588-0.317
			c-0.212,0.818-0.363,1.694-0.363,2.224c0,1.409,0.438,2.482,1.98,2.482c1.801,0,3.116-1.876,3.479-2.348L162.181,85.067z"/>
		<path fill="#989898" d="M171.437,85.551c-0.136,0.363-0.166,0.742-0.166,0.908c0,0.196,0.181,0.516,0.575,0.516
			c0.756,0,1.225-0.725,1.905-1.771l0.257,0.152c-0.666,1.091-1.376,2.118-2.783,2.118c-0.877,0-1.467-0.499-1.467-1.377
			c0-0.377,0.227-1.06,0.378-1.559h-0.046c-1.286,1.695-2.601,2.936-4.25,2.936c-0.998,0-1.891-0.258-1.891-1.604
			c0-0.364,0.227-1.164,0.333-1.528l1.739-5.338h-1.347l0.091-0.332h0.561c0.907,0,1.784-0.094,2.691-0.473l-2.359,7.349
			c-0.121,0.378-0.196,0.742-0.196,0.862c0,0.456,0.272,0.728,0.816,0.728c1.195,0,3.615-2.057,4.371-4.446l1.286-4.022h1.694
			L171.437,85.551z"/>
		<path fill="#989898" d="M177.683,79.004h-1.542l0.105-0.332h1.527l0.908-2.904c0.695,0,1.345-0.168,1.89-0.593l-1.089,3.497h2.451
			l-0.105,0.332h-2.451l-2.057,6.563c-0.06,0.241-0.151,0.635-0.151,0.953c0,0.317,0.211,0.62,0.65,0.62
			c0.681,0,2.163-1.044,3.146-2.497l0.226,0.167c-0.892,1.135-2.223,2.663-3.812,2.663c-0.998,0-1.724-0.394-1.724-1.497
			c0-0.426,0.152-0.955,0.348-1.544L177.683,79.004z"/>
		<path fill="#989898" d="M186.107,74.813c-0.529,0-0.68-0.453-0.68-0.724c0-0.696,0.575-1.559,1.226-1.559
			c0.65,0,0.786,0.438,0.786,0.713C187.439,73.936,186.879,74.813,186.107,74.813z M182.826,78.672h0.574
			c0.893,0,1.786-0.094,2.677-0.473l-2.178,6.899c-0.15,0.452-0.332,0.998-0.332,1.314c0,0.257,0.151,0.562,0.499,0.562
			c1.12,0,2.072-1.455,2.33-1.833l0.257,0.167c-0.273,0.47-1.513,2.163-3.146,2.163c-0.681,0-1.452-0.379-1.452-1.421
			c0-0.394,0.151-0.816,0.271-1.271l1.785-5.776h-1.346L182.826,78.672z"/>
		<path fill="#989898" d="M195.077,84.222c-0.272,0.663-1.83,3.389-4.22,3.389c-1.134,0-3.282-0.878-3.282-3.603
			c0-2.844,2.798-5.809,5.627-5.809c1.436,0,2.314,0.696,2.314,1.528c0,0.698-0.378,1.076-0.969,1.076
			c-0.544,0-0.922-0.335-0.922-0.999c0-0.56,0.227-0.77,0.227-0.922c0-0.196-0.105-0.348-0.726-0.348
			c-2.964,0-3.796,5.262-3.796,6.82c0,1.058,0.469,1.907,1.618,1.907c2.072,0,3.645-2.707,3.826-3.146L195.077,84.222z"/>
		<path fill="#989898" d="M199.75,87.262c1.785,0,2.798-1.711,3.388-3.675c0.529-1.74,0.953-2.741,0.953-3.161
			c0-0.757-0.635-1.891-1.936-1.891c-2.677,0-3.917,5.396-3.917,7.03C198.238,86.686,198.797,87.262,199.75,87.262z M204.272,85.4
			c-0.105,0.334-0.227,0.756-0.227,1.104c0,0.333,0.167,0.59,0.5,0.59c0.74,0,1.663-1.423,1.95-1.815l0.212,0.214
			c-0.272,0.378-1.195,2.117-2.541,2.117c-1.423,0-1.483-1.256-1.513-1.907h-0.03c-0.514,0.863-1.679,1.907-2.904,1.907
			c-1.98,0-3.115-1.634-3.115-3.602c0-2.964,3.01-5.808,5.642-5.808c1.361,0,1.906,1.121,2.057,1.754h0.03l0.408-1.283h1.604
			L204.272,85.4z"/>
		<path fill="#989898" d="M211.834,72.65h-1.421l0.091-0.333h0.937c0.817,0,1.664-0.137,2.33-0.53L209.748,85.4
			c-0.137,0.422-0.258,0.756-0.258,1.013s0.151,0.562,0.5,0.562c1.119,0,2.087-1.455,2.33-1.833l0.257,0.167
			c-0.272,0.47-1.513,2.163-3.146,2.163c-0.666,0-1.452-0.379-1.452-1.421c0-0.379,0.151-0.862,0.378-1.618L211.834,72.65z"/>
		<path fill="#989898" d="M219.579,81.969l0.332,0.06c-0.167,0.619-0.271,1.254-0.271,1.891c0,1.966,1.632,3.435,3.796,3.435
			c3.584,0,3.977-3.026,3.977-3.692c0-3.978-6.095-2.191-6.095-6.729c0-1.361,0.695-4.823,4.507-4.823
			c1.981,0,2.677,1.178,3.478,1.178c0.348,0,0.5-0.482,0.56-0.739l0.333,0.12l-1.195,4.446l-0.333-0.077
			c0.105-0.53,0.212-1.058,0.212-1.617c0-1.876-1.21-2.982-3.267-2.982c-1.845,0-3.418,1.274-3.418,3.131
			c0,3.314,6.473,1.998,6.473,6.822c0,1.951-1.315,5.294-5.429,5.294c-2.118,0-3.041-1.271-3.932-1.271
			c-0.469,0-0.651,0.532-0.862,0.94l-0.317-0.063L219.579,81.969z"/>
		<path fill="#989898" d="M233.553,80c-0.439,0.757-1.573,4.433-1.573,5.415c0,1.029,0.635,1.847,1.83,1.847
			c1.301,0,1.951-0.969,2.133-1.271c0.544-0.924,1.678-4.523,1.678-5.766c0-1.026-0.635-1.69-1.83-1.69
			C234.733,78.535,234.022,79.2,233.553,80z M235.929,78.201c1.466,0,3.206,1.27,3.206,3.403c0,3.433-2.752,6.006-5.263,6.006
			c-2.314,0-3.404-1.665-3.404-3.708C230.467,81.256,232.827,78.201,235.929,78.201z"/>
		<path fill="#989898" d="M248.179,84.222c-0.272,0.663-1.814,3.389-4.204,3.389c-1.134,0-3.298-0.878-3.298-3.603
			c0-2.844,2.813-5.809,5.642-5.809c1.421,0,2.314,0.696,2.314,1.528c0,0.698-0.378,1.076-0.968,1.076
			c-0.544,0-0.922-0.335-0.922-0.999c0-0.56,0.227-0.77,0.227-0.922c0-0.196-0.106-0.348-0.727-0.348
			c-2.964,0-3.796,5.262-3.796,6.82c0,1.058,0.455,1.907,1.603,1.907c2.088,0,3.66-2.707,3.842-3.146L248.179,84.222z"/>
		<path fill="#989898" d="M253.806,74.813c-0.53,0-0.681-0.453-0.681-0.724c0-0.696,0.575-1.559,1.225-1.559
			c0.65,0,0.802,0.438,0.802,0.713C255.151,73.936,254.576,74.813,253.806,74.813z M250.538,78.672h0.56
			c0.907,0,1.785-0.094,2.677-0.473l-2.178,6.899c-0.137,0.452-0.333,0.998-0.333,1.314c0,0.257,0.152,0.562,0.5,0.562
			c1.12,0,2.087-1.455,2.329-1.833l0.257,0.167c-0.272,0.47-1.513,2.163-3.146,2.163c-0.666,0-1.452-0.379-1.452-1.421
			c0-0.394,0.151-0.816,0.273-1.271l1.784-5.776h-1.346L250.538,78.672z"/>
		<path fill="#989898" d="M260.55,78.535c-1.89,0-2.721,2.192-3.206,3.705c0.333,0.105,0.877,0.303,1.512,0.303
			c2.254,0,2.95-1.846,2.95-2.708C261.807,79.094,261.322,78.535,260.55,78.535z M262.563,85.067
			c-0.438,0.604-1.725,2.543-4.008,2.543c-1.119,0-3.282-0.878-3.282-3.602c0-3.267,3.01-5.808,5.641-5.808
			c1.044,0,2.284,0.515,2.284,1.846c0,1.635-1.981,2.827-4.341,2.827c-0.544,0-1.088-0.105-1.603-0.317
			c-0.197,0.818-0.348,1.694-0.348,2.224c0,1.409,0.439,2.482,1.967,2.482c1.8,0,3.131-1.876,3.479-2.348L262.563,85.067z"/>
		<path fill="#989898" d="M266.676,79.004h-1.543l0.106-0.332h1.543l0.892-2.904c0.696,0,1.346-0.168,1.89-0.593l-1.089,3.497h2.45
			l-0.105,0.332h-2.45l-2.057,6.563c-0.061,0.241-0.151,0.635-0.151,0.953c0,0.317,0.212,0.62,0.65,0.62
			c0.68,0,2.163-1.044,3.146-2.497l0.227,0.167c-0.893,1.135-2.208,2.663-3.811,2.663c-0.999,0-1.709-0.394-1.709-1.497
			c0-0.426,0.136-0.955,0.333-1.544L266.676,79.004z"/>
		<path fill="#989898" d="M277.884,81.256c1.043-1.934,1.694-3.057,2.783-3.057c0.59,0,1.014,0.318,1.014,1.075
			c0,0.559-0.394,0.951-0.923,0.951c-0.393,0-0.832-0.271-0.832-0.739c0-0.212,0.121-0.347,0.121-0.543
			c0-0.061-0.03-0.106-0.09-0.106c-0.167,0-0.787,0.649-1.785,2.45l-2.405,4.416c-1.755,3.222-3.69,6.609-6.246,6.609
			c-0.877,0-1.513-0.498-1.513-1.299c0-0.604,0.469-1.076,1.013-1.076c0.484,0,0.877,0.271,0.877,0.954
			c0,0.53-0.363,0.604-0.363,0.849c0,0.121,0.136,0.212,0.363,0.212c1.633,0,3.584-2.905,4.28-4.218l-1.028-7.61
			c-0.06-0.423-0.166-1.027-0.575-1.027c-0.711,0-1.527,1.663-1.77,2.07l-0.302-0.103c0.272-0.473,1.361-2.862,3.085-2.862
			c1.089,0,1.255,1.228,1.376,2.27l0.635,4.915h0.045L277.884,81.256z"/>
		<path fill="#989898" d="M292.948,78.535c-1.801,0-2.935,1.586-3.449,3.462l-0.696,2.404c-0.121,0.472-0.167,0.833-0.167,0.954
			c0,1.272,1.029,1.907,2.012,1.907c2.662,0,4.023-4.658,4.023-6.58C294.672,79.2,293.96,78.535,292.948,78.535z M283.601,92.735
			h1.134l3.948-13.731h-1.255l0.076-0.332h0.469c1.058,0,1.92-0.046,2.464-0.473l-0.378,1.648h0.046
			c0.71-1.013,1.785-1.648,2.979-1.648c1.693,0,3.222,1.392,3.222,3.6c0,2.813-2.603,5.812-5.445,5.812
			c-1.315,0-2.224-0.667-2.435-1.682h-0.045l-1.905,6.807h1.255l-0.076,0.333h-4.129L283.601,92.735z"/>
		<path fill="#989898" d="M305.652,85.551c-0.121,0.363-0.166,0.742-0.166,0.908c0,0.196,0.196,0.516,0.59,0.516
			c0.756,0,1.21-0.725,1.904-1.771l0.258,0.152c-0.68,1.091-1.392,2.118-2.797,2.118c-0.878,0-1.468-0.499-1.468-1.377
			c0-0.377,0.242-1.06,0.378-1.559h-0.03c-1.286,1.695-2.601,2.936-4.266,2.936c-0.982,0-1.875-0.258-1.875-1.604
			c0-0.364,0.227-1.164,0.333-1.528l1.739-5.338h-1.347l0.091-0.332h0.56c0.908,0,1.785-0.094,2.677-0.473l-2.344,7.349
			c-0.121,0.378-0.211,0.742-0.211,0.862c0,0.456,0.271,0.728,0.816,0.728c1.194,0,3.629-2.057,4.387-4.446l1.285-4.022h1.693
			L305.652,85.551z"/>
		<path fill="#989898" d="M316.194,78.535c-0.983,0-2.012,0.559-2.724,1.36c-1.314,1.496-1.844,4.961-1.844,5.732
			c0,0.574,0.574,1.634,1.951,1.634c3.251,0,4.159-6.051,4.159-6.898C317.737,79.351,317.435,78.535,316.194,78.535z M313.412,72.65
			h-1.423l0.075-0.333h0.953c0.817,0,1.648-0.137,2.329-0.53l-2.39,8.228l0.03,0.044c0.787-1.164,2.254-1.859,3.464-1.859
			c1.588,0,2.919,0.909,2.919,3.404c0,1.77-1.996,6.007-5.974,6.007c-1.709,0-3.236-1.031-3.236-2.726
			c0-0.65,0.166-1.392,0.317-1.921L313.412,72.65z"/>
		<path fill="#989898" d="M324.77,72.65h-1.421l0.075-0.333h0.952c0.816,0,1.648-0.137,2.329-0.53L322.684,85.4
			c-0.138,0.422-0.258,0.756-0.258,1.013s0.15,0.562,0.499,0.562c1.118,0,2.071-1.455,2.328-1.833l0.258,0.167
			c-0.272,0.47-1.513,2.163-3.146,2.163c-0.682,0-1.452-0.379-1.452-1.421c0-0.379,0.15-0.862,0.379-1.618L324.77,72.65z"/>
		<path fill="#989898" d="M330.563,74.813c-0.529,0-0.681-0.453-0.681-0.724c0-0.696,0.575-1.559,1.226-1.559
			s0.786,0.438,0.786,0.713C331.894,73.936,331.334,74.813,330.563,74.813z M327.281,78.672h0.574c0.892,0,1.784-0.094,2.677-0.473
			l-2.179,6.899c-0.151,0.452-0.332,0.998-0.332,1.314c0,0.257,0.15,0.562,0.499,0.562c1.119,0,2.072-1.455,2.329-1.833l0.258,0.167
			c-0.272,0.47-1.514,2.163-3.146,2.163c-0.68,0-1.451-0.379-1.451-1.421c0-0.394,0.15-0.816,0.272-1.271l1.783-5.776h-1.346
			L327.281,78.672z"/>
		<path fill="#989898" d="M339.531,84.222c-0.272,0.663-1.831,3.389-4.219,3.389c-1.135,0-3.282-0.878-3.282-3.603
			c0-2.844,2.797-5.809,5.626-5.809c1.438,0,2.314,0.696,2.314,1.528c0,0.698-0.379,1.076-0.969,1.076
			c-0.545,0-0.923-0.335-0.923-0.999c0-0.56,0.227-0.77,0.227-0.922c0-0.196-0.105-0.348-0.726-0.348
			c-2.964,0-3.796,5.262-3.796,6.82c0,1.058,0.469,1.907,1.618,1.907c2.071,0,3.646-2.707,3.826-3.146L339.531,84.222z"/>
		<path fill="#989898" d="M344.205,87.262c1.784,0,2.813-1.711,3.388-3.675c0.529-1.74,0.953-2.741,0.953-3.161
			c0-0.757-0.635-1.891-1.937-1.891c-2.677,0-3.917,5.396-3.917,7.03C342.692,86.686,343.252,87.262,344.205,87.262z M348.728,85.4
			c-0.106,0.334-0.228,0.756-0.228,1.104c0,0.333,0.167,0.59,0.5,0.59c0.74,0,1.663-1.423,1.95-1.815l0.212,0.214
			c-0.272,0.378-1.195,2.117-2.541,2.117c-1.422,0-1.482-1.256-1.513-1.907h-0.03c-0.514,0.863-1.679,1.907-2.903,1.907
			c-1.981,0-3.116-1.634-3.116-3.602c0-2.964,3.011-5.808,5.642-5.808c1.361,0,1.906,1.121,2.058,1.754h0.029l0.409-1.283h1.603
			L348.728,85.4z"/>
		<path fill="#989898" d="M354.807,79.004h-1.526l0.105-0.332h1.527l0.906-2.904c0.682,0,1.333-0.168,1.877-0.593l-1.089,3.497
			h2.449l-0.105,0.332h-2.45l-2.057,6.563c-0.062,0.241-0.137,0.635-0.137,0.953c0,0.317,0.212,0.62,0.65,0.62
			c0.666,0,2.148-1.044,3.146-2.497l0.227,0.167c-0.907,1.135-2.224,2.663-3.812,2.663c-1.013,0-1.724-0.394-1.724-1.497
			c0-0.426,0.15-0.955,0.333-1.544L354.807,79.004z"/>
		<path fill="#989898" d="M363.231,74.813c-0.529,0-0.666-0.453-0.666-0.724c0-0.696,0.56-1.559,1.21-1.559
			c0.651,0,0.802,0.438,0.802,0.713C364.577,73.936,364.002,74.813,363.231,74.813z M359.965,78.672h0.56
			c0.908,0,1.783-0.094,2.691-0.473l-2.177,6.899c-0.152,0.452-0.348,0.998-0.348,1.314c0,0.257,0.15,0.562,0.514,0.562
			c1.103,0,2.071-1.455,2.328-1.833l0.242,0.167c-0.272,0.47-1.513,2.163-3.146,2.163c-0.665,0-1.437-0.379-1.437-1.421
			c0-0.394,0.136-0.816,0.272-1.271l1.77-5.776h-1.332L359.965,78.672z"/>
		<path fill="#989898" d="M367.783,80c-0.438,0.757-1.571,4.433-1.571,5.415c0,1.029,0.619,1.847,1.814,1.847
			c1.301,0,1.951-0.969,2.147-1.271c0.544-0.924,1.679-4.523,1.679-5.766c0-1.026-0.636-1.69-1.83-1.69
			C368.948,78.535,368.238,79.2,367.783,80z M370.144,78.201c1.467,0,3.206,1.27,3.206,3.403c0,3.433-2.736,6.006-5.249,6.006
			c-2.313,0-3.402-1.665-3.402-3.708C364.698,81.256,367.043,78.201,370.144,78.201z"/>
		<path fill="#989898" d="M377.086,79.004h-1.302l0.092-0.332h0.438c0.893,0,1.786-0.094,2.679-0.473l-0.863,2.92h0.046
			c0.923-1.543,2.525-2.92,4.16-2.92c1.329,0,1.965,0.758,1.965,1.71c0,0.922-1.996,5.869-1.996,6.396
			c0,0.348,0.151,0.667,0.483,0.667c0.907,0,1.77-1.454,2.103-1.846l0.212,0.15c-0.424,0.605-1.407,2.194-2.934,2.194
			c-0.998,0-1.377-0.604-1.377-1.56c0-1.314,1.996-5.793,1.996-6.669c0-0.422-0.226-0.71-0.801-0.71
			c-0.983,0-3.555,1.571-4.401,4.446l-1.256,4.372h-1.678L377.086,79.004z"/>
	</g>
</g>
</svg>
